<?xml version="1.0" standalone="no"?>
<!DOCTYPE svg PUBLIC "-//W3C//DTD SVG 20010904//EN"
 "http://www.w3.org/TR/2001/REC-SVG-20010904/DTD/svg10.dtd">
<svg version="1.0" xmlns="http://www.w3.org/2000/svg"
 width="500.000000pt" height="500.000000pt" viewBox="0 0 500.000000 500.000000"
 preserveAspectRatio="xMidYMid meet">

<g transform="translate(0.000000,500.000000) scale(0.100000,-0.100000)"
fill="#000000" stroke="none">
<path d="M0 2500 l0 -2500 2500 0 2500 0 0 2500 0 2500 -2500 0 -2500 0 0
-2500z m4310 2115 l0 -355 -355 -2 -354 -3 81 -65 c181 -145 320 -351 393
-582 29 -92 55 -245 55 -325 l0 -53 -439 0 -438 0 -7 71 c-9 87 -39 189 -74
249 -28 49 -101 131 -144 162 l-28 19 0 -548 0 -548 98 -39 c698 -279 1032
-684 1032 -1251 0 -622 -428 -1048 -1162 -1155 -479 -71 -946 -9 -1323 175
-384 187 -619 443 -730 795 -30 98 -55 247 -55 338 l0 62 439 0 438 0 7 -75
c9 -104 39 -215 78 -288 43 -82 147 -186 225 -226 34 -17 65 -31 68 -31 3 0 4
264 3 587 l-3 588 -102 41 c-319 132 -526 260 -701 433 -252 250 -360 573
-311 927 37 269 204 540 434 705 l47 34 -326 3 -326 2 0 355 0 355 1740 0
1740 0 0 -355z"/>
<path d="M2060 3716 c-58 -42 -114 -104 -140 -156 -58 -115 -64 -260 -14 -366
29 -62 123 -163 182 -197 l32 -18 0 385 c0 212 -3 386 -7 386 -5 0 -28 -15
-53 -34z"/>
<path d="M3000 1360 c0 -225 3 -410 7 -410 3 0 28 14 55 31 159 102 222 304
162 518 -20 72 -69 145 -134 204 -99 89 -90 125 -90 -343z"/>
</g>
</svg>
